<?xml version="1.0" encoding="UTF-8" standalone="no"?>
<svg
   xmlns:dc="http://purl.org/dc/elements/1.1/"
   xmlns:cc="http://creativecommons.org/ns#"
   xmlns:rdf="http://www.w3.org/1999/02/22-rdf-syntax-ns#"
   xmlns:svg="http://www.w3.org/2000/svg"
   xmlns="http://www.w3.org/2000/svg"
   xmlns:sodipodi="http://sodipodi.sourceforge.net/DTD/sodipodi-0.dtd"
   xmlns:inkscape="http://www.inkscape.org/namespaces/inkscape"
   width="210mm"
   height="297mm"
   viewBox="0 0 210 297"
   version="1.1"
   id="svg8"
   inkscape:version="1.0.2-2 (e86c870879, 2021-01-15)"
   sodipodi:docname="yarn.svg">
  <defs
     id="defs2" />
  <sodipodi:namedview
     id="base"
     pagecolor="#ffffff"
     bordercolor="#666666"
     borderopacity="1.0"
     inkscape:pageopacity="0.0"
     inkscape:pageshadow="2"
     inkscape:zoom="0.7"
     inkscape:cx="287.26817"
     inkscape:cy="495.41607"
     inkscape:document-units="mm"
     inkscape:current-layer="layer1"
     inkscape:document-rotation="0"
     showgrid="false"
     inkscape:window-width="1407"
     inkscape:window-height="1030"
     inkscape:window-x="96"
     inkscape:window-y="0"
     inkscape:window-maximized="0" />
  <metadata
     id="metadata5">
    <rdf:RDF>
      <cc:Work
         rdf:about="">
        <dc:format>image/svg+xml</dc:format>
        <dc:type
           rdf:resource="http://purl.org/dc/dcmitype/StillImage" />
        <dc:title></dc:title>
      </cc:Work>
    </rdf:RDF>
  </metadata>
  <g
     inkscape:label="Sloj 1"
     inkscape:groupmode="layer"
     id="layer1">
    <path
       style="fill:none;stroke:#000000;stroke-width:0.264583px;stroke-linecap:butt;stroke-linejoin:miter;stroke-opacity:1"
       d="m 157.99405,52.916666 c -1.57269,-2.425779 -4.63071,-3.378036 -7.55953,-2.645833 -1.34783,0.33696 -1.41276,0.895368 -2.64583,1.511906 -0.53035,0.26517 -1.33673,0.101398 -1.88988,0.377975 -1.2875,0.64375 -2.24479,2.156061 -3.40179,3.023809 -0.50652,0.379895 -1.34539,0.538158 -1.88988,0.755952 -3.23214,1.292857 -4.89718,2.900569 -8.69345,2.267858 -1.98459,-0.330764 -3.98318,-0.839007 -6.04762,-1.133928 -0.6993,-0.0999 -1.66516,0.301347 -2.26786,0 -0.48481,-0.242406 -1.00865,-0.966181 -1.5119,-1.13393 -2.11703,-0.705675 -4.66198,-0.655267 -6.80357,-1.511903 -0.42178,-0.168714 -0.71215,-0.587243 -1.13393,-0.755954 -1.34028,-0.53611 -2.84788,-0.759683 -4.15774,-1.133928 -1.44931,-0.414091 -2.57406,-1.287031 -3.77976,-1.889881 -0.33807,-0.169037 -0.76724,0.09167 -1.13393,0 -1.96116,-0.490289 -3.97087,-1.215226 -6.04762,-1.511904 -2.581942,-0.36885 -4.151019,0.375735 -6.425594,1.133928 -0.680358,0.226785 -1.5875,-0.226785 -2.267858,0 -3.263453,1.087818 -7.25792,0.755951 -10.961309,0.755951 -1.007935,0 -2.029587,0.165704 -3.023809,0 -0.93122,-0.155202 -8.805942,-2.155367 -9.449406,-1.511903 -0.06965,0.06965 -0.308329,1.064281 -0.377976,1.133928 -0.08909,0.08909 -0.288885,-0.08909 -0.377976,0 -0.864682,0.864684 -2.131933,2.373987 -2.645833,3.401784 -1.173276,2.346556 3.021269,4.928934 2.645833,7.181549 -0.02982,0.17894 -0.58606,3.062004 -0.755951,3.401785 -0.05635,0.112691 -0.251984,0 -0.377976,0 -0.251986,0.251986 -0.596585,0.437216 -0.755954,0.755954 -0.469191,0.938382 -1.015048,2.709839 -1.133928,3.779761 -0.536024,4.824222 -0.14619,11.535473 0.377976,16.252975 0.241067,2.169597 1.702001,4.53793 2.645834,6.425597 0.579919,1.159835 0.829373,2.939513 1.133927,4.157736 0.798642,3.194561 -1.371111,6.33679 -1.889879,9.44941 -0.209987,1.25992 0.314978,0.31497 0,1.88988 -0.690994,3.45496 -1.363475,7.69415 -0.755954,11.33928 0.07932,0.47595 0.297254,2.86236 0.377978,3.02381 1.248982,2.49797 2.681629,5.43486 3.401785,8.31548 1.131258,4.52503 0.297151,9.01912 0.755952,13.60714 0.06751,0.67512 0.62289,1.22457 0.755951,1.88988 0.246581,1.23291 -0.0307,2.03952 0.377979,3.40179 1.040661,3.46887 0.644313,0.24083 1.133927,4.15774 0.278485,2.22786 0.85471,12.03733 0.377976,13.22916 -0.168712,0.42178 -0.552797,0.72762 -0.755952,1.13393 -0.538424,1.07685 -0.1095,1.9499 -0.377976,3.02381 -0.391707,1.56683 -0.946398,2.46997 -1.13393,4.15774 -0.195437,1.75894 -0.249269,4.30273 0,6.04762 0.146931,1.02851 0.641221,1.9912 0.755955,3.02381 0.109754,0.9878 -0.334444,2.77643 0,3.77976 0.493596,1.48079 0.664972,3.94767 0.377975,5.66964 -0.285088,1.71053 -0.583146,0.71809 -1.13393,2.64583 -0.103838,0.36344 0.06214,0.7611 0,1.13393 -0.375949,2.25571 -0.807616,4.51941 -1.133927,6.80357 -0.264734,1.85313 0.206838,3.80811 0,5.66965 -0.181425,1.63281 -0.08872,3.84537 -0.377976,5.29166 -0.197411,0.98706 -0.377976,0.84486 -0.377976,1.88988 0,3.12099 -1.043736,5.50647 -1.511906,8.31548 -0.444042,2.66425 -0.223453,7.14593 0,9.82738 0.183674,2.20407 1.982486,7.56709 1.511906,9.44941 -0.369154,1.47661 -1.092864,2.58423 -1.889881,3.77976 -0.209664,0.31449 0.169037,0.79585 0,1.13393 -0.159369,0.31873 -0.558282,0.45944 -0.755952,0.75595 -0.987076,1.48061 -0.377978,6.88999 -0.377978,8.69345 0,0.79632 -0.348832,2.70412 0,3.40179 0.161155,0.3223 2.825115,2.20162 3.023811,2.26785 0.655908,0.21864 0.82858,-0.30535 1.511904,0.37798 0.892437,0.89244 -2.10824,-0.19878 0.755951,0.75594 0.723368,0.24114 1.195099,-0.31678 1.889882,0.37798 0.08909,0.0891 -0.08909,0.2889 0,0.37799 0.294341,0.29435 5.957729,-0.14404 6.425597,-0.37799 1.960215,-0.98009 3.121511,-2.89215 5.669642,-3.40178 2.117291,-0.42346 7.474207,0.85351 9.449403,1.51191 1.21467,0.40489 2.553134,1.39923 3.779763,1.88987 1.856603,0.74264 7.54336,-0.57099 9.82738,0 0.54663,0.13666 0.97737,0.57778 1.51191,0.75597 1.4259,0.4753 2.82217,-0.004 4.15773,0.37796 2.01259,0.57504 3.59169,1.21507 5.66965,1.51191 1.33379,0.19055 4.48654,0.47323 5.66964,0 1.58009,-0.63204 3.48049,-1.40793 4.91369,-2.26785 0.30558,-0.18336 0.42508,-0.6236 0.75595,-0.75597 0.46793,-0.18717 1.06114,0.2254 1.51191,0 0.64984,-0.32491 0.68227,-0.92651 1.5119,-1.13392 2.09073,-0.52268 5.59755,-0.98099 7.55952,0 0.60065,0.30033 1.60223,-0.16641 2.26786,0 1.06143,0.26536 13.12882,2.0906 13.98512,0.37798 1.78459,-3.56919 0.15249,-8.54747 1.13393,-12.47321 0.0864,-0.34572 0.64326,-0.41789 0.75595,-0.75596 0.34541,-1.03623 -0.22544,-1.06102 0.37798,-2.26785 0.15937,-0.31874 0.64326,-0.41788 0.75595,-0.75596 0.12599,-0.62996 0.25198,-1.25992 0.37798,-1.88988 0.12599,-0.12599 0.32163,-0.20894 0.37797,-0.37797 0.5905,-1.77149 -0.19466,-6.40288 0.37798,-8.69345 0.11017,-0.44071 0.66686,-0.68848 0.75595,-1.13393 0.30824,-1.54122 0.85577,-8.39401 0.37798,-9.82738 -0.53049,-1.59147 -2.62278,-3.37873 -3.77976,-4.53572 -0.62871,-0.6287 -1.93883,-2.5792 -2.26786,-3.40178 -0.49554,-1.23886 -0.83581,-8.4539 -0.37798,-9.82739 0.82827,-1.2424 0.74271,-0.89858 1.13393,-2.26785 1.89793,-6.64274 2.67124,-15.34457 1.51191,-22.3006 -0.0829,-0.49711 0.13845,-1.02733 0,-1.5119 -0.25444,-0.89052 -0.96075,-1.02395 -1.13393,-1.88988 -1.08171,-5.40853 -3.02381,-10.70289 -3.02381,-16.25298 0,-5.33732 1.23584,-10.33693 2.26785,-15.49702 0.33009,-1.65045 1.54897,-3.2091 1.88989,-4.91369 0.92351,-4.61758 -1.36777,-14.39836 -2.26786,-18.89881 -0.23407,-1.17036 0,-2.5939 0,-3.77976 0,-3.65378 0,-7.30754 0,-10.96131 0,-1.7032 0.27885,-3.61859 0,-5.29167 -0.28225,-1.69352 -1.2225,-3.17724 -1.51191,-4.91369 -0.22355,-1.341292 0.19183,-2.814945 0,-4.15774 -0.0641,-0.448778 -0.98406,-1.290417 -1.13392,-1.889879 -0.21391,-0.855612 0.12472,-1.772753 0,-2.645833 -0.0399,-0.278897 -0.28889,-0.488683 -0.37798,-0.755954 -0.5018,-1.505389 0,-7.191034 0,-9.071428 0,-1.437671 -0.4932,-5.948542 0,-7.181548 0.9838,-2.459503 1.26703,-5.057447 2.26786,-7.559524 1.54079,-3.851979 4.56653,-7.651967 5.66964,-10.961309 0.12213,-0.3664 0.86216,-1.783678 0.37798,-2.267857 -0.52491,-0.524905 -2.44285,-0.610712 -3.02381,-0.755952 z"
       id="path883" />
  </g>
</svg>
